<?xml version="1.0" encoding="UTF-8" standalone="no"?>
<!-- Created with Inkscape (http://www.inkscape.org/) -->
<svg xmlns:dc="http://purl.org/dc/elements/1.1/" xmlns:cc="http://creativecommons.org/ns#" xmlns:rdf="http://www.w3.org/1999/02/22-rdf-syntax-ns#" xmlns:svg="http://www.w3.org/2000/svg" xmlns="http://www.w3.org/2000/svg" xmlns:xlink="http://www.w3.org/1999/xlink" xmlns:sodipodi="http://sodipodi.sourceforge.net/DTD/sodipodi-0.dtd" xmlns:inkscape="http://www.inkscape.org/namespaces/inkscape" width="665.41962" height="665.41962" id="svg3441" sodipodi:version="0.32" inkscape:version="0.46" version="1.0" sodipodi:docname="cartoon eye.svg" inkscape:output_extension="org.inkscape.output.svg.inkscape">
  <defs id="defs3443">
    <linearGradient inkscape:collect="always" id="linearGradient3315">
      <stop style="stop-color: rgb(0, 0, 0); stop-opacity: 1;" offset="0" id="stop3317"/>
      <stop style="stop-color: rgb(0, 0, 0); stop-opacity: 0;" offset="1" id="stop3319"/>
    </linearGradient>
    <filter inkscape:collect="always" id="filter3301" x="-0.11580088" width="1.2316018" y="-0.1175455" height="1.235091">
      <feGaussianBlur inkscape:collect="always" stdDeviation="1.6419579" id="feGaussianBlur3303"/>
    </filter>
    <linearGradient id="linearGradient3327">
      <stop style="stop-color: rgb(0, 161, 255); stop-opacity: 1;" offset="0" id="stop3329"/>
      <stop style="stop-color: rgb(0, 0, 1); stop-opacity: 1;" offset="1" id="stop3331"/>
    </linearGradient>
    <filter inkscape:collect="always" id="filter3405" x="-0.21810699" width="1.436214" y="-0.22649573" height="1.4529915">
      <feGaussianBlur inkscape:collect="always" stdDeviation="0.61965375" id="feGaussianBlur3407"/>
    </filter>
    <radialGradient inkscape:collect="always" xlink:href="#linearGradient3315" id="radialGradient3511" gradientUnits="userSpaceOnUse" gradientTransform="matrix(0.941938, 1.22077, -1.35543, 1.04584, 445.104, -438.963)" cx="349.33572" cy="312.65402" fx="349.33572" fy="312.65402" r="17.014978"/>
    <radialGradient inkscape:collect="always" xlink:href="#linearGradient3327" id="radialGradient3513" gradientUnits="userSpaceOnUse" gradientTransform="matrix(0.455908, 0.490172, -0.786407, 0.731436, 450.887, -86.1316)" cx="358.25293" cy="321.22525" fx="358.25293" fy="321.22525" r="17.014978"/>
    <radialGradient inkscape:collect="always" xlink:href="#linearGradient3327" id="radialGradient3515" gradientUnits="userSpaceOnUse" gradientTransform="matrix(-4.17137e-07, 0.633593, -1.16713, -6.73689e-07, 738.516, 103.499)" cx="356.08118" cy="329.07925" fx="356.08118" fy="329.07925" r="17.014978"/>
  </defs>
  <sodipodi:namedview inkscape:document-units="in" pagecolor="#ffffff" bordercolor="#666666" borderopacity="1.0" inkscape:pageopacity="0.0" inkscape:pageshadow="2" inkscape:zoom="0.36" inkscape:cx="383.44382" inkscape:cy="847.46304" inkscape:current-layer="layer1" id="namedview3445" showgrid="false" inkscape:window-width="645" inkscape:window-height="724" inkscape:window-x="608" inkscape:window-y="25"/>
  <metadata id="metadata3447">
    <rdf:RDF>
      <cc:Work rdf:about="">
        <dc:format>image/svg+xml</dc:format>
        <dc:type rdf:resource="http://purl.org/dc/dcmitype/StillImage"/>
      </cc:Work>
    </rdf:RDF>
  </metadata>
  <g inkscape:label="Layer 1" inkscape:groupmode="layer" id="layer1" transform="translate(-121.457, -83.6792)">
    <path sodipodi:type="arc" style="fill: rgb(255, 255, 255); fill-opacity: 1; fill-rule: nonzero; stroke: rgb(0, 0, 0); stroke-width: 0pt; stroke-linecap: round; stroke-linejoin: miter; stroke-miterlimit: 4; stroke-dasharray: none; stroke-opacity: 1;" id="path3415" sodipodi:cx="356.07877" sodipodi:cy="320.75919" sodipodi:rx="31.31473" sodipodi:ry="31.31473" d="M 387.3935,320.75919 A 31.31473,31.31473 0 1 1 324.76404,320.75919 A 31.31473,31.31473 0 1 1 387.3935,320.75919 z" transform="matrix(10.3081, 2.56554, -2.56554, 10.3081, -2391.42, -3803.58)"/>
    <path sodipodi:type="arc" style="fill: rgb(255, 255, 255); fill-opacity: 1; fill-rule: nonzero; stroke: rgb(0, 0, 0); stroke-width: 1.2; stroke-linecap: round; stroke-linejoin: miter; stroke-miterlimit: 4; stroke-dasharray: none; stroke-opacity: 1;" id="path3185" sodipodi:cx="354.43729" sodipodi:cy="319.87531" sodipodi:rx="16.414978" sodipodi:ry="16.162441" d="M 370.85226,319.87531 A 16.414978,16.162441 0 1 1 338.02231,319.87531 A 16.414978,16.162441 0 1 1 370.85226,319.87531 z" transform="matrix(9.95132, 2.47673, -2.47673, 9.95132, -2286.34, -3650.09)"/>
    <path sodipodi:type="arc" style="fill: url(#radialGradient3511) rgb(0, 0, 0); fill-opacity: 1; fill-rule: nonzero; stroke: rgb(0, 0, 0); stroke-width: 1.2; stroke-linecap: round; stroke-linejoin: miter; stroke-miterlimit: 4; stroke-dasharray: none; stroke-opacity: 1; filter: url(#filter3301);" id="path3305" sodipodi:cx="354.43729" sodipodi:cy="319.87531" sodipodi:rx="16.414978" sodipodi:ry="16.162441" d="M 370.85226,319.87531 A 16.414978,16.162441 0 1 1 338.02231,319.87531 A 16.414978,16.162441 0 1 1 370.85226,319.87531 z" transform="matrix(8.89945, 2.21494, -2.21494, 8.89945, -1994.46, -3218.16)"/>
    <path transform="matrix(8.89945, 2.21494, -2.21494, 8.89945, -1994.46, -3218.16)" d="M 370.85226,319.87531 A 16.414978,16.162441 0 1 1 338.02231,319.87531 A 16.414978,16.162441 0 1 1 370.85226,319.87531 z" sodipodi:ry="16.162441" sodipodi:rx="16.414978" sodipodi:cy="319.87531" sodipodi:cx="354.43729" id="path3325" style="fill: url(#radialGradient3513) rgb(0, 0, 0); fill-opacity: 1; fill-rule: nonzero; stroke: rgb(0, 0, 0); stroke-width: 1.2; stroke-linecap: round; stroke-linejoin: miter; stroke-miterlimit: 4; stroke-dasharray: none; stroke-opacity: 1; filter: url(#filter3301);" sodipodi:type="arc"/>
    <path sodipodi:type="arc" style="fill: url(#radialGradient3515) rgb(0, 0, 0); fill-opacity: 1; fill-rule: nonzero; stroke: rgb(0, 0, 0); stroke-width: 1.2; stroke-linecap: round; stroke-linejoin: miter; stroke-miterlimit: 4; stroke-dasharray: none; stroke-opacity: 1; filter: url(#filter3301);" id="path3409" sodipodi:cx="354.43729" sodipodi:cy="319.87531" sodipodi:rx="16.414978" sodipodi:ry="16.162441" d="M 370.85226,319.87531 A 16.414978,16.162441 0 1 1 338.02231,319.87531 A 16.414978,16.162441 0 1 1 370.85226,319.87531 z" transform="matrix(8.89945, 2.21494, -2.21494, 8.89945, -1994.46, -3218.16)"/>
    <path sodipodi:type="arc" style="fill: rgb(0, 0, 0); fill-opacity: 1; fill-rule: nonzero; stroke: rgb(0, 0, 0); stroke-width: 1.2; stroke-linecap: round; stroke-linejoin: miter; stroke-miterlimit: 4; stroke-dasharray: none; stroke-opacity: 1;" id="path3323" sodipodi:cx="352.79578" sodipodi:cy="316.84485" sodipodi:rx="6.4397225" sodipodi:ry="6.4397225" d="M 359.2355,316.84485 A 6.4397225,6.4397225 0 1 1 346.35605,316.84485 A 6.4397225,6.4397225 0 1 1 359.2355,316.84485 z" transform="matrix(11.4557, 2.85115, -2.85115, 11.4557, -2673.44, -4243.31)"/>
    <path style="fill: rgb(0, 0, 0); fill-opacity: 1; fill-rule: evenodd; stroke: rgb(0, 0, 0); stroke-width: 1.06226; stroke-linecap: butt; stroke-linejoin: miter; stroke-miterlimit: 4; stroke-dasharray: none; stroke-opacity: 1;" d="M 366.91071,246.6981 C 222.42444,318.67435 164.27165,457.30888 164.27179,457.30893 C 183.30762,429.56653 206.25944,405.03958 230.9812,383.46758 C 192.92788,442.9403 175.86211,498.77826 175.86197,498.77821 L 148.69528,534.83568 C 151.95798,543.94101 185.89287,559.15657 196.91883,525.96282 C 308.82441,189.06857 559.74305,272.4023 653.16061,317.53203 C 653.2689,317.58431 653.63358,317.94192 653.7415,317.99414 C 654.6617,318.97677 663.05421,321.87224 676.7265,329.63955 C 674.423,349.96504 662.79461,470.98256 566.01291,556.08884 C 504.5272,610.15722 378.75028,610.29513 275.57328,606.17586 C 275.57328,606.17586 405.79443,631.95706 522.07366,597.01474 C 658.13864,556.12656 703.08316,387.64264 707.90252,335.28081 C 711.60823,333.87221 714.4558,331.95971 714.38504,331.90123 C 714.2718,331.80732 776.44751,298.8885 753.49493,288.46141 C 706.93677,267.31079 665.29253,252.47613 626.61859,243.11154 C 610.32461,239.16612 594.75334,236.42434 579.34364,234.33807 C 634.54891,224.26823 673.11705,220.86961 676.30818,219.28038 C 676.13174,219.20777 676.11987,218.88564 675.72729,218.81827 C 670.17443,217.86564 634.22145,208.08265 577.8027,205.03652 C 493.17468,200.46716 423.44886,218.53351 366.91071,246.6981 z" id="path3170" sodipodi:nodetypes="cscccssscscscssscsssc"/>
    <path sodipodi:type="arc" style="fill: rgb(255, 255, 255); fill-opacity: 1; fill-rule: nonzero; stroke: rgb(0, 0, 0); stroke-width: 0pt; stroke-linecap: round; stroke-linejoin: miter; stroke-miterlimit: 4; stroke-dasharray: none; stroke-opacity: 1; filter: url(#filter3405);" id="path3335" sodipodi:cx="355.95251" sodipodi:cy="317.4762" sodipodi:rx="3.4092648" sodipodi:ry="3.2829957" d="M 359.36178,317.4762 A 3.4092648,3.2829957 0 1 1 352.54325,317.4762 A 3.4092648,3.2829957 0 1 1 359.36178,317.4762 z" transform="matrix(10.4339, 2.59683, -2.59683, 10.4339, -2402.04, -3841.7)"/>
  </g>
</svg>